<?xml version="1.0" encoding="UTF-8"?>
<svg version="1.1" xmlns="http://www.w3.org/2000/svg" width="130" height="94">
<path d="M0 0 C42.9 0 85.8 0 130 0 C130 31.02 130 62.04 130 94 C87.1 94 44.2 94 0 94 C0 62.98 0 31.96 0 0 Z " fill="#0C0D0D" transform="translate(0,0)"/>
<path d="M0 0 C5.4759375 -0.0928125 5.4759375 -0.0928125 11.0625 -0.1875 C12.76805054 -0.22846802 12.76805054 -0.22846802 14.50805664 -0.27026367 C21.67362909 -0.32884813 26.792397 0.21445003 32.375 5.0625 C35.13960507 8.3587599 35.18713985 10.56420174 35.25 14.8125 C35.27578125 15.85019531 35.3015625 16.88789062 35.328125 17.95703125 C34.95390112 21.42751221 34.06689504 23.21355505 32 26 C27.13724791 29.64706407 23.70847822 31.13098607 17.67578125 31.09765625 C16.74934814 31.09515869 15.82291504 31.09266113 14.8684082 31.09008789 C13.6949585 31.08098389 12.52150879 31.07187988 11.3125 31.0625 C7.579375 31.041875 3.84625 31.02125 0 31 C0 20.77 0 10.54 0 0 Z " fill="#F6F6F6" transform="translate(24,30)"/>
<path d="M0 0 C7 0 7 0 9.72241211 1.92773438 C10.56553955 2.80751953 11.40866699 3.68730469 12.27734375 4.59375 C12.73355606 5.05986694 13.18976837 5.52598389 13.6598053 6.00622559 C15.10306709 7.48845339 16.51999507 8.9931636 17.9375 10.5 C18.91567243 11.51330956 19.89547565 12.52504758 20.87695312 13.53515625 C23.26737213 16.0080035 25.63584819 18.50202827 28 21 C28.33 14.07 28.66 7.14 29 0 C31.31 0 33.62 0 36 0 C36 10.23 36 20.46 36 31 C29 31 29 31 26.70825195 29.48706055 C26.05816162 28.79394775 25.40807129 28.10083496 24.73828125 27.38671875 C23.64870117 26.2565332 23.64870117 26.2565332 22.53710938 25.10351562 C21.80298828 24.30623047 21.06886719 23.50894531 20.3125 22.6875 C18.83139941 21.12703187 17.34839284 19.56837006 15.86328125 18.01171875 C15.21657471 17.31522217 14.56986816 16.61872559 13.90356445 15.90112305 C12.03643238 13.93714509 12.03643238 13.93714509 9.75854492 12.37426758 C8.88806519 11.69400513 8.88806519 11.69400513 8 11 C8 10.34 8 9.68 8 9 C7.34 9 6.68 9 6 9 C6 16.26 6 23.52 6 31 C4.02 31 2.04 31 0 31 C0 20.77 0 10.54 0 0 Z " fill="#F2F2F2" transform="translate(66,30)"/>
<path d="M0 0 C2.35125 -0.061875 4.7025 -0.12375 7.125 -0.1875 C7.85348145 -0.21481201 8.58196289 -0.24212402 9.33251953 -0.27026367 C13.99472075 -0.32906279 17.07847104 0.50395264 21 3 C23.46141247 6.6921187 23.68650207 9.71354805 23 14 C20.84108326 17.54679179 18.86956033 19.55536414 15 21 C12.36675429 21.14006626 9.8742956 21.1889934 7.25 21.125 C4.8575 21.08375 2.465 21.0425 0 21 C0 14.07 0 7.14 0 0 Z " fill="#161717" transform="translate(30,35)"/>
<path d="M0 0 C2.64 0 5.28 0 8 0 C8 1.98 8 3.96 8 6 C5.36 6 2.72 6 0 6 C0 4.02 0 2.04 0 0 Z " fill="#808080" transform="translate(108,55)"/>
</svg>
